<svg xmlns="http://www.w3.org/2000/svg" viewBox="0 0 366.72 366.72"><defs><style>.cls-1{fill-rule:evenodd;}</style></defs><title>资源 1</title><g id="图层_2" data-name="图层 2"><g id="Layer_1" data-name="Layer 1"><path class="cls-1" d="M162.75,292.51l-56.38,56.38a61.32,61.32,0,0,1-86.47,0l-2.08-2.08a61.32,61.32,0,0,1,0-86.47L74.21,204l31.34,31.34L76.28,264.59,49.9,316.82l52.23-26.37,29.28-29.28Z"/><path class="cls-1" d="M310.69,73.74,290.53,93.89,272.83,76.19,293,56a24.25,24.25,0,0,0,4,5.27l8.44,8.44a24.27,24.27,0,0,0,5.27,4ZM285.1,99.32,267.4,81.62,145.55,203.47l17.71,17.71L285.1,99.32ZM157.82,226.6l-37.46,37.46L98.71,285.72,62.94,303.78,81,268l22.36-22.36,36.75-36.75Z"/><path d="M322,1.69l43,43a5.76,5.76,0,0,1,0,8.15l-21,21a30.29,30.29,0,0,1-42.73,0l-8.44-8.44a30.29,30.29,0,0,1,0-42.73l21-21a5.76,5.76,0,0,1,8.15,0Zm30.81,47.1L317.93,13.91,301.05,30.79a18.77,18.77,0,0,0,0,26.44l8.44,8.44a18.77,18.77,0,0,0,26.44,0Z"/></g></g></svg>